<svg width="55" height="55" viewBox="0 0 55 55" fill="none" xmlns="http://www.w3.org/2000/svg">
<g clip-path="url(#clip0_112_31)">
<g filter="url(#filter0_f_112_31)">
<path d="M12.5416 21.9317L11.2769 29.7204C16.4034 30.1445 20.8258 31.1187 24.827 32.3946C24.5302 35.3727 23.3414 37.3537 22.5169 39.7312L24.606 38.0725L25.7123 41.2949C27.8817 37.7131 28.5154 35.85 28.246 33.9801C31.095 33.8196 35.6497 37.6489 40.1549 38.5671C45.0224 37.1747 46.8853 30.8505 47.2907 27.7809L32.5594 25.306L32.7401 24.4174C34.356 22.3872 34.7127 21.0705 35.1158 18.3869L32.859 20.548L32.099 17.2463L31.3817 22.0645L32.2513 25.2426L12.5418 21.9314L12.5416 21.9317Z" fill="black" fill-opacity="0.769"/>
</g>
<path d="M31.8893 25.7833C34.228 22.7482 35.1071 19.9234 34.2955 17.3421L32.7243 19.8132L30.9721 16.2318C31.6135 20.6839 29.969 22.8445 28.5231 25.2041L31.8893 25.7833Z" fill="url(#paint0_linear_112_31)"/>
<path d="M24.1731 31.637C25.2064 35.1626 23.0166 37.4291 21.9013 40.1154L24.5763 37.8032L25.242 41.1728C27.0755 38.2569 28.7591 35.3286 27.5481 32.1627L24.1731 31.637Z" fill="url(#paint1_linear_112_31)"/>
<path d="M39.4784 38.2844C43.865 37.6804 49.5437 28.6365 45.0161 24.4692L33.8208 25.1412L30.231 33.9706L39.4784 38.2844Z" fill="url(#paint2_linear_112_31)"/>
<g filter="url(#filter1_f_112_31)">
<path d="M45.852 25.9171C46.076 29.6489 45.882 32.6567 40.5084 36.7245L32.0969 33.8587L35.0747 27.3131L45.852 25.9171Z" fill="black" fill-opacity="0.513"/>
</g>
<path d="M45.852 25.9171C46.076 29.6489 45.882 32.6567 40.5084 36.7245L32.0969 33.8587L35.0747 27.3131L45.852 25.9171Z" fill="url(#paint3_linear_112_31)"/>
<g filter="url(#filter2_f_112_31)">
<path d="M40.5084 36.7245C39.6724 35.2766 40.2844 32.9927 42.0383 31.0148C42.5929 30.3894 34.1567 30.7389 34.1567 30.7389L33.2388 34.1647L40.5084 36.7245Z" fill="black" fill-opacity="0.513"/>
</g>
<path d="M40.5084 36.7245C39.6724 35.2766 40.2844 32.9927 42.0383 31.0148C42.5929 30.3894 34.1567 30.7389 34.1567 30.7389L33.2388 34.1647L40.5084 36.7245Z" fill="url(#paint4_linear_112_31)"/>
<g filter="url(#filter3_f_112_31)">
<path d="M13.7365 20.0807C11.0945 20.8876 8.00468 25.5673 11.2365 29.493C23.3165 30.2882 30.8786 34.403 39.4788 38.2845C37.8069 35.3886 40.3667 28.1191 45.8524 25.9172C34.963 25.4473 20.7147 24.6984 13.7366 20.0803L13.7365 20.0807Z" fill="black" fill-opacity="0.513"/>
</g>
<path d="M13.7365 20.0807C11.0945 20.8876 8.00468 25.5673 11.2365 29.493C23.3165 30.2882 30.8786 34.403 39.4788 38.2845C37.8069 35.3886 40.3667 28.1191 45.8524 25.9172C34.963 25.4473 20.7147 24.6984 13.7366 20.0803L13.7365 20.0807Z" fill="url(#paint5_linear_112_31)"/>
<g filter="url(#filter4_f_112_31)">
<path d="M13.2661 19.6338C11.4002 19.7458 9.64635 21.7236 9.75835 23.5895L38.6126 30.0971C40.2545 26.2533 42.4264 24.9994 45.0162 24.4694C35.1155 24.8775 23.5367 24.4205 13.2661 19.6338Z" fill="black" fill-opacity="0.388"/>
</g>
<path d="M13.2661 19.6338C11.4002 19.7458 9.64635 21.7236 9.75835 23.5895L38.6126 30.0971C40.2545 26.2533 42.4264 24.9994 45.0162 24.4694C35.1155 24.8775 23.5367 24.4205 13.2661 19.6338Z" fill="url(#paint6_linear_112_31)"/>
<path d="M22.9912 31.8068C24.6698 32.2597 25.0889 32.5011 26.6077 33.0463C26.819 30.1739 25.9685 27.1221 29.7456 23.5559C27.9743 23.3557 27.2858 23.4688 25.6839 23.1708C23.2938 25.4664 23.075 28.6103 22.9912 31.8068Z" fill="url(#paint7_linear_112_31)"/>
<g filter="url(#filter5_f_112_31)">
<path d="M10.5308 24.4117C9.92519 26.625 10.7314 27.7695 11.3396 29.0638L15.842 29.6212C13.8274 28.6596 11.6262 28.2905 10.5307 24.4117L10.5307 24.4117L10.5308 24.4117Z" fill="white"/>
</g>
<g filter="url(#filter6_f_112_31)">
<path d="M23.5341 28.1661L23.1733 31.5313L25.155 32.0081C23.641 31.1182 23.8583 29.5335 23.5341 28.1661Z" fill="white" fill-opacity="0.777"/>
</g>
<g filter="url(#filter7_f_112_31)">
<path d="M22.6116 39.2781L24.4369 35.4941C24.3172 36.1312 23.7034 36.9353 24.4448 37.2812L22.6116 39.2781Z" fill="white" fill-opacity="0.777"/>
</g>
<path d="M16.5 20.5L13.5 19.5H13H12.5L11.5 20L10.5 21L10 21.5L9.5 22.5H9V23.5L10 24L9.5 24.5V26L10 28L11 29.5L16 30L22.5 31.5L23 32H24V32.5V33V33.5V34V34.5V35L23.5 35.5L23 36V37L22.5 37.5H22V38.5V40L24 38L24.5 38.5V39L24 39.5L24.5 40V40.5V41L25 41.5H25.5L26 40L26.5 39.5L27 38.5L27.5 37.5L28 36V33.5L38 38L39 38.5H40L43.5 36.5L44 36L46 33L46.5 31L47 29V27.5L46 25.5L45 24.5H36.5H35.5H34.5H34L33 24C33.3333 23.8333 34.1 23.4 34.5 23C34.9 22.6 34.6667 22.5 34.5 22.5L35 21.5V20.5C35 20 35.5 19 35 19C34.6 19 34.8333 18.6667 35 18.5L34.5 17.5L34 17V17.5L33.5 18L33 19H32.5L32 18.5V18L31.5 17V16.5L30.5 16V17V17.5V19V19.5V20.5L30 22V22.5L29.5 23H28.5H27.5H26.5H25.5H24.5L23 22.5H22L20.5 22L18.5 21.5L16.5 20.5Z" stroke="black" stroke-width="2"/>
</g>
<defs>
<filter id="filter0_f_112_31" x="10.1621" y="16.1315" width="38.2435" height="26.2783" filterUnits="userSpaceOnUse" color-interpolation-filters="sRGB">
<feFlood flood-opacity="0" result="BackgroundImageFix"/>
<feBlend mode="normal" in="SourceGraphic" in2="BackgroundImageFix" result="shape"/>
<feGaussianBlur stdDeviation="0.557429" result="effect1_foregroundBlur_112_31"/>
</filter>
<filter id="filter1_f_112_31" x="31.7345" y="25.5547" width="14.5365" height="11.5322" filterUnits="userSpaceOnUse" color-interpolation-filters="sRGB">
<feFlood flood-opacity="0" result="BackgroundImageFix"/>
<feBlend mode="normal" in="SourceGraphic" in2="BackgroundImageFix" result="shape"/>
<feGaussianBlur stdDeviation="0.181196" result="effect1_foregroundBlur_112_31"/>
</filter>
<filter id="filter2_f_112_31" x="32.8764" y="30.2791" width="9.55045" height="6.80773" filterUnits="userSpaceOnUse" color-interpolation-filters="sRGB">
<feFlood flood-opacity="0" result="BackgroundImageFix"/>
<feBlend mode="normal" in="SourceGraphic" in2="BackgroundImageFix" result="shape"/>
<feGaussianBlur stdDeviation="0.181196" result="effect1_foregroundBlur_112_31"/>
</filter>
<filter id="filter3_f_112_31" x="9.48912" y="19.7179" width="36.7256" height="18.9289" filterUnits="userSpaceOnUse" color-interpolation-filters="sRGB">
<feFlood flood-opacity="0" result="BackgroundImageFix"/>
<feBlend mode="normal" in="SourceGraphic" in2="BackgroundImageFix" result="shape"/>
<feGaussianBlur stdDeviation="0.181196" result="effect1_foregroundBlur_112_31"/>
</filter>
<filter id="filter4_f_112_31" x="9.59729" y="19.4778" width="35.5749" height="10.7753" filterUnits="userSpaceOnUse" color-interpolation-filters="sRGB">
<feFlood flood-opacity="0" result="BackgroundImageFix"/>
<feBlend mode="normal" in="SourceGraphic" in2="BackgroundImageFix" result="shape"/>
<feGaussianBlur stdDeviation="0.07799" result="effect1_foregroundBlur_112_31"/>
</filter>
<filter id="filter5_f_112_31" x="9.43628" y="23.5318" width="7.28561" height="6.96927" filterUnits="userSpaceOnUse" color-interpolation-filters="sRGB">
<feFlood flood-opacity="0" result="BackgroundImageFix"/>
<feBlend mode="normal" in="SourceGraphic" in2="BackgroundImageFix" result="shape"/>
<feGaussianBlur stdDeviation="0.439933" result="effect1_foregroundBlur_112_31"/>
</filter>
<filter id="filter6_f_112_31" x="22.7131" y="27.7059" width="2.90213" height="4.76239" filterUnits="userSpaceOnUse" color-interpolation-filters="sRGB">
<feFlood flood-opacity="0" result="BackgroundImageFix"/>
<feBlend mode="normal" in="SourceGraphic" in2="BackgroundImageFix" result="shape"/>
<feGaussianBlur stdDeviation="0.230102" result="effect1_foregroundBlur_112_31"/>
</filter>
<filter id="filter7_f_112_31" x="22.1514" y="35.0339" width="2.75368" height="4.7044" filterUnits="userSpaceOnUse" color-interpolation-filters="sRGB">
<feFlood flood-opacity="0" result="BackgroundImageFix"/>
<feBlend mode="normal" in="SourceGraphic" in2="BackgroundImageFix" result="shape"/>
<feGaussianBlur stdDeviation="0.230102" result="effect1_foregroundBlur_112_31"/>
</filter>
<linearGradient id="paint0_linear_112_31" x1="25.2503" y1="19.5353" x2="32.9839" y2="15.0703" gradientUnits="userSpaceOnUse">
<stop offset="0.47656" stop-color="#7F0000"/>
<stop offset="1" stop-color="#BF0000" stop-opacity="0.996"/>
</linearGradient>
<linearGradient id="paint1_linear_112_31" x1="18.798" y1="34.7403" x2="26.4767" y2="30.307" gradientUnits="userSpaceOnUse">
<stop offset="0.47656" stop-color="#7F0000"/>
<stop offset="1" stop-color="#BF0000" stop-opacity="0.996"/>
</linearGradient>
<linearGradient id="paint2_linear_112_31" x1="42.1203" y1="26.141" x2="44.9135" y2="44.0555" gradientUnits="userSpaceOnUse">
<stop stop-color="#F4E9B0"/>
<stop offset="1" stop-color="#FFFBE5"/>
</linearGradient>
<linearGradient id="paint3_linear_112_31" x1="42.1202" y1="26.1411" x2="43.9172" y2="33.5176" gradientUnits="userSpaceOnUse">
<stop stop-color="#F4E9B0"/>
<stop offset="1" stop-color="#FFFBE5"/>
</linearGradient>
<linearGradient id="paint4_linear_112_31" x1="38.9484" y1="35.6945" x2="41.4512" y2="31.9679" gradientUnits="userSpaceOnUse">
<stop stop-color="#F4E9B0"/>
<stop offset="1" stop-color="#FFFBE5"/>
</linearGradient>
<linearGradient id="paint5_linear_112_31" x1="26.0815" y1="33.4707" x2="25.8402" y2="24.4694" gradientUnits="userSpaceOnUse">
<stop stop-color="#F4E9B0"/>
<stop offset="1" stop-color="#FFFBE5"/>
</linearGradient>
<linearGradient id="paint6_linear_112_31" x1="26.0514" y1="26.7312" x2="25.4463" y2="21.6062" gradientUnits="userSpaceOnUse">
<stop stop-color="#F4E9B0"/>
<stop offset="1" stop-color="#FFFBE5"/>
</linearGradient>
<linearGradient id="paint7_linear_112_31" x1="19.9249" y1="26.4958" x2="28.5634" y2="21.5083" gradientUnits="userSpaceOnUse">
<stop offset="0.30469" stop-color="#7F0000"/>
<stop offset="0.65234" stop-color="#BF0000" stop-opacity="0.996"/>
<stop offset="1" stop-color="#7F0000" stop-opacity="0.996"/>
</linearGradient>
<clipPath id="clip0_112_31">
<rect width="40.1257" height="40.1257" fill="white" transform="translate(0 20.0628) rotate(-30)"/>
</clipPath>
</defs>
</svg>
