<?xml version="1.0" encoding="UTF-8"?>
<svg id="Layer_1" data-name="Layer 1" xmlns="http://www.w3.org/2000/svg" viewBox="0 0 64 64">
  <defs>
    <style>
      .cls-1 {
        fill: none;
      }

      .cls-1, .cls-2 {
        stroke: #000;
        stroke-miterlimit: 10;
      }

      .cls-2 {
        fill: #b5a691;
      }
    </style>
  </defs>
  <path class="cls-2" d="M9.8611,11.0326c2.9499-1.7292,11.7778-7.1667,23.2778-8,16.7778,10.1667,9.0556,42.7222,21,48.5-5.3786,7.4223-15.3774,12.7268-24.0833,9.9674-8.4444-6.0076-1.9722-28.6028-20.1944-50.4674Z"/>
  <path class="cls-1" d="M17.9167,16.6993c4.8333-1.7222,4.6111-4.3333,8.9444-3.9444,2.5695,.2306,4.7778-3.8333,8.1111-3.4444"/>
  <path class="cls-1" d="M19.9167,20.6993c3.2778,.3889,2.6667-2.0556,4.5556-2.2222,3.7203-.3283,3.1667-4.2222,8.3333-3.8333,1.2611,.0949,2.2778-2.5,4.1111-2.5"/>
  <path class="cls-1" d="M22.0549,23.8576c4.8333-1.7222,4.6111-4.3333,8.9444-3.9444,2.5695,.2306,4.7778-3.8333,8.1111-3.4444"/>
  <path class="cls-1" d="M23.75,27.0882c4.8333-1.7222,4.6111-4.3333,8.9444-3.9444,2.5695,.2306,4.7778-3.8333,8.1111-3.4444"/>
  <path class="cls-1" d="M24.2359,30.5167c3.2778,.3889,2.6667-2.0556,4.5556-2.2222,3.7203-.3283,3.1667-4.2222,8.3333-3.8333,1.2611,.0949,2.2778-2.5,4.1111-2.5"/>
  <path class="cls-1" d="M26.8907,42.5571c3.2778,.3889,2.6667-2.0556,4.5556-2.2222,3.7203-.3283,3.1667-4.2222,8.3333-3.8333,1.2611,.0949,2.2778-2.5,4.1111-2.5"/>
  <path class="cls-1" d="M29.5871,48.0243c3.2778,.3889,2.6667-2.0556,4.5556-2.2222,3.7203-.3283,3.1667-4.2222,8.3333-3.8333,1.2611,.0949,2.2778-2.5,4.1111-2.5"/>
  <path class="cls-1" d="M25.8884,36.2333c4.8333-1.7222,4.6111-4.3333,8.9444-3.9444,2.5695,.2306,4.7778-3.8333,8.1111-3.4444"/>
</svg>